<svg xmlns="http://www.w3.org/2000/svg" xmlns:xlink="http://www.w3.org/1999/xlink" width="809" zoomAndPan="magnify" viewBox="0 0 606.75 606.749987" height="809" preserveAspectRatio="xMidYMid meet" version="1.0"><defs><clipPath id="36cac54988"><path d="M 0 0 L 606.472656 0 L 606.472656 606.472656 L 0 606.472656 Z M 0 0 " clip-rule="nonzero"/></clipPath><clipPath id="a36938a50c"><path d="M 74.96875 0 L 531.503906 0 C 572.910156 0 606.472656 33.566406 606.472656 74.96875 L 606.472656 531.503906 C 606.472656 572.910156 572.910156 606.472656 531.503906 606.472656 L 74.96875 606.472656 C 33.566406 606.472656 0 572.910156 0 531.503906 L 0 74.96875 C 0 33.566406 33.566406 0 74.96875 0 Z M 74.96875 0 " clip-rule="nonzero"/></clipPath><clipPath id="0f6ba6d3d5"><path d="M 86.933594 116 L 519.503906 116 L 519.503906 509.84375 L 86.933594 509.84375 Z M 86.933594 116 " clip-rule="nonzero"/></clipPath><clipPath id="8e6f30c878"><path d="M 86.933594 116 L 519.503906 116 L 519.503906 255 L 86.933594 255 Z M 86.933594 116 " clip-rule="nonzero"/></clipPath><clipPath id="589485418d"><path d="M 145 96.765625 L 186 96.765625 L 186 166 L 145 166 Z M 145 96.765625 " clip-rule="nonzero"/></clipPath><clipPath id="3ab3c69f44"><path d="M 283 96.765625 L 323 96.765625 L 323 166 L 283 166 Z M 283 96.765625 " clip-rule="nonzero"/></clipPath><clipPath id="3d8e397da0"><path d="M 421 96.765625 L 461 96.765625 L 461 166 L 421 166 Z M 421 96.765625 " clip-rule="nonzero"/></clipPath></defs><g clip-path="url(#36cac54988)"><g clip-path="url(#a36938a50c)"><path fill="#dc0073" d="M 0 0 L 606.472656 0 L 606.472656 606.472656 L 0 606.472656 Z M 0 0 " fill-opacity="1" fill-rule="nonzero"/></g></g><g clip-path="url(#0f6ba6d3d5)"><path fill="#ffffff" d="M 86.933594 175.417969 C 86.933594 142.839844 113.347656 116.429688 145.925781 116.429688 L 460.546875 116.429688 C 493.128906 116.429688 519.539062 142.839844 519.539062 175.417969 L 519.539062 450.710938 C 519.539062 483.292969 493.128906 509.703125 460.546875 509.703125 L 145.925781 509.703125 C 113.347656 509.703125 86.933594 483.292969 86.933594 450.710938 Z M 145.925781 155.753906 C 135.066406 155.753906 126.261719 164.558594 126.261719 175.417969 L 126.261719 450.710938 C 126.261719 461.574219 135.066406 470.375 145.925781 470.375 L 460.546875 470.375 C 471.40625 470.375 480.210938 461.574219 480.210938 450.710938 L 480.210938 175.417969 C 480.210938 164.558594 471.40625 155.753906 460.546875 155.753906 Z M 145.925781 155.753906 " fill-opacity="1" fill-rule="evenodd"/></g><g clip-path="url(#8e6f30c878)"><path fill="#ffffff" d="M 86.933594 175.417969 C 86.933594 142.839844 113.347656 116.429688 145.925781 116.429688 L 460.546875 116.429688 C 493.128906 116.429688 519.539062 142.839844 519.539062 175.417969 L 519.539062 234.410156 C 519.539062 245.269531 510.734375 254.074219 499.875 254.074219 L 106.597656 254.074219 C 95.738281 254.074219 86.933594 245.269531 86.933594 234.410156 Z M 145.925781 155.753906 C 135.066406 155.753906 126.261719 164.558594 126.261719 175.417969 L 126.261719 214.746094 L 480.210938 214.746094 L 480.210938 175.417969 C 480.210938 164.558594 471.40625 155.753906 460.546875 155.753906 Z M 145.925781 155.753906 " fill-opacity="1" fill-rule="evenodd"/></g><g clip-path="url(#589485418d)"><path fill="#ffffff" d="M 145.925781 96.765625 L 185.253906 96.765625 L 185.253906 165.585938 L 145.925781 165.585938 Z M 145.925781 96.765625 " fill-opacity="1" fill-rule="evenodd"/></g><g clip-path="url(#3ab3c69f44)"><path fill="#ffffff" d="M 283.570312 96.765625 L 322.898438 96.765625 L 322.898438 165.585938 L 283.570312 165.585938 Z M 283.570312 96.765625 " fill-opacity="1" fill-rule="evenodd"/></g><g clip-path="url(#3d8e397da0)"><path fill="#ffffff" d="M 421.21875 96.765625 L 460.546875 96.765625 L 460.546875 165.585938 L 421.21875 165.585938 Z M 421.21875 96.765625 " fill-opacity="1" fill-rule="evenodd"/></g><path fill="#ffffff" d="M 175.421875 293.402344 L 214.75 293.402344 L 214.75 332.730469 L 175.421875 332.730469 Z M 175.421875 293.402344 " fill-opacity="1" fill-rule="evenodd"/><path fill="#ffffff" d="M 175.421875 372.058594 L 214.75 372.058594 L 214.75 411.386719 L 175.421875 411.386719 Z M 175.421875 372.058594 " fill-opacity="1" fill-rule="evenodd"/><path fill="#ffffff" d="M 283.570312 293.402344 L 322.898438 293.402344 L 322.898438 332.730469 L 283.570312 332.730469 Z M 283.570312 293.402344 " fill-opacity="1" fill-rule="evenodd"/><path fill="#ffffff" d="M 283.570312 372.058594 L 322.898438 372.058594 L 322.898438 411.386719 L 283.570312 411.386719 Z M 283.570312 372.058594 " fill-opacity="1" fill-rule="evenodd"/><path fill="#ffffff" d="M 391.722656 293.402344 L 431.050781 293.402344 L 431.050781 332.730469 L 391.722656 332.730469 Z M 391.722656 293.402344 " fill-opacity="1" fill-rule="evenodd"/><path fill="#ffffff" d="M 391.722656 372.058594 L 431.050781 372.058594 L 431.050781 411.386719 L 391.722656 411.386719 Z M 391.722656 372.058594 " fill-opacity="1" fill-rule="evenodd"/></svg>