<svg xmlns="http://www.w3.org/2000/svg" xmlns:xlink="http://www.w3.org/1999/xlink" width="809" zoomAndPan="magnify" viewBox="0 0 606.75 606.749987" height="809" preserveAspectRatio="xMidYMid meet" version="1.0"><defs><clipPath id="ba09956fb0"><path d="M 0 0 L 606.472656 0 L 606.472656 606.472656 L 0 606.472656 Z M 0 0 " clip-rule="nonzero"/></clipPath><clipPath id="e656e06d57"><path d="M 74.96875 0 L 531.503906 0 C 572.910156 0 606.472656 33.566406 606.472656 74.96875 L 606.472656 531.503906 C 606.472656 572.910156 572.910156 606.472656 531.503906 606.472656 L 74.96875 606.472656 C 33.566406 606.472656 0 572.910156 0 531.503906 L 0 74.96875 C 0 33.566406 33.566406 0 74.96875 0 Z M 74.96875 0 " clip-rule="nonzero"/></clipPath><clipPath id="691e0b5d01"><path d="M 69 111 L 592.714844 111 L 592.714844 515 L 69 515 Z M 69 111 " clip-rule="nonzero"/></clipPath></defs><g clip-path="url(#ba09956fb0)"><g clip-path="url(#e656e06d57)"><path fill="#dc0073" d="M 0 0 L 606.472656 0 L 606.472656 606.472656 L 0 606.472656 Z M 0 0 " fill-opacity="1" fill-rule="nonzero"/></g></g><g clip-path="url(#691e0b5d01)"><path fill="#ffffff" d="M 303.074219 195.839844 C 308.230469 185.777344 311.847656 177.761719 316.277344 170.226562 C 333.527344 140.855469 356.976562 118.917969 391.722656 113.25 C 420.046875 108.628906 447.460938 113.433594 472.992188 126.953125 C 506.714844 144.804688 526.105469 173.515625 533.765625 210.21875 C 539.878906 239.476562 536.550781 268.359375 527.164062 296.59375 C 526.113281 299.769531 524.6875 302.824219 523.25 306.40625 C 481.980469 306.40625 440.988281 306.40625 398.503906 306.40625 C 395.574219 300.972656 392.105469 294.792969 388.867188 288.492188 C 384.214844 279.460938 379.570312 270.429688 375.230469 261.253906 C 371.523438 253.4375 366.414062 247.199219 357.140625 247.792969 C 348.117188 248.375 343.402344 254.476562 340.386719 262.871094 C 332.089844 285.964844 323.207031 308.855469 314.535156 331.8125 C 313.800781 333.769531 312.917969 335.679688 311.429688 339.226562 C 309.644531 335.800781 308.132812 333.640625 307.332031 331.234375 C 296.894531 299.925781 286.550781 268.589844 276.183594 237.261719 C 275.523438 235.253906 275.046875 233.175781 274.265625 231.21875 C 271.359375 223.953125 266.332031 218.925781 258.21875 218.859375 C 250.300781 218.796875 244.683594 222.960938 241.664062 230.4375 C 234.070312 249.277344 226.453125 268.109375 218.796875 286.925781 C 216.253906 293.183594 213.558594 299.378906 210.328125 307.023438 C 205.558594 307.023438 200.574219 307.019531 195.597656 307.023438 C 183.3125 307.054688 171.015625 306.730469 158.746094 307.234375 C 148.96875 307.636719 142.847656 314.296875 142.621094 323.425781 C 142.410156 332.070312 147.761719 338.851562 156.464844 340.621094 C 158.925781 341.117188 161.523438 341.046875 164.050781 341.054688 C 182.269531 341.085938 200.492188 340.816406 218.699219 341.160156 C 229.53125 341.363281 236.132812 336.636719 239.917969 326.65625 C 244.707031 314.039062 250.011719 301.621094 256.058594 286.746094 C 258.699219 294.25 260.664062 299.527344 262.433594 304.871094 C 272.535156 335.402344 282.613281 365.933594 292.632812 396.492188 C 295.199219 404.324219 299.355469 410.101562 308.441406 410.609375 C 317.34375 411.105469 322.824219 407.640625 326.574219 397.9375 C 333.582031 379.785156 340.257812 361.5 347.078125 343.269531 C 351.214844 332.195312 355.378906 321.132812 360.226562 308.183594 C 363.644531 314.859375 366.738281 319.738281 368.734375 325.039062 C 373.25 337.035156 381.460938 341.371094 394.242188 341.273438 C 452.277344 340.824219 510.320312 341.0625 568.363281 341.078125 C 572.59375 341.078125 576.882812 340.84375 581.054688 341.394531 C 587.59375 342.253906 592.1875 347.460938 592.230469 353.28125 C 592.277344 359.023438 587.730469 364.335938 581.257812 365.4375 C 577.953125 365.992188 574.503906 365.753906 571.117188 365.761719 C 546.96875 365.789062 522.824219 365.886719 498.675781 365.738281 C 493.25 365.699219 489.265625 366.917969 485.628906 371.5625 C 447.277344 420.589844 399.113281 458.335938 346.8125 491.195312 C 334.988281 498.625 322.664062 505.253906 310.660156 512.398438 C 305.902344 515.226562 301.597656 515.613281 296.492188 512.765625 C 232.03125 476.847656 172.484375 434.703125 125.25 377.109375 C 100.523438 346.964844 81.425781 313.703125 73.542969 275.035156 C 65.84375 237.234375 68.929688 200.558594 89.894531 167.289062 C 111.242188 133.410156 143.53125 116.5625 182.710938 112.4375 C 231.308594 107.320312 265.867188 129.058594 290.125 169.757812 C 292.503906 173.753906 294.5 177.984375 296.570312 182.148438 C 298.4375 185.882812 300.167969 189.691406 303.074219 195.839844 Z M 303.074219 195.839844 " fill-opacity="1" fill-rule="nonzero"/></g></svg>