<svg xmlns="http://www.w3.org/2000/svg" xmlns:xlink="http://www.w3.org/1999/xlink" width="1080" zoomAndPan="magnify" viewBox="0 0 810 262.499992" height="350" preserveAspectRatio="xMidYMid meet" version="1.0"><defs><filter x="0%" y="0%" width="100%" height="100%" id="763b31c668"><feColorMatrix values="0 0 0 0 1 0 0 0 0 1 0 0 0 0 1 0 0 0 1 0" color-interpolation-filters="sRGB"/></filter><g/><clipPath id="2ff8b1a66e"><path d="M 671.257812 49.324219 L 727.304688 49.324219 L 727.304688 89.242188 L 671.257812 89.242188 Z M 671.257812 49.324219 " clip-rule="nonzero"/></clipPath><clipPath id="fbabe6969b"><path d="M 663.171875 16.171875 L 735.4375 16.171875 L 735.4375 51.890625 L 663.171875 51.890625 Z M 663.171875 16.171875 " clip-rule="nonzero"/></clipPath><clipPath id="1de6e9b7fb"><path d="M 699.28125 16.171875 L 735.390625 51.890625 L 663.171875 51.890625 Z M 699.28125 16.171875 " clip-rule="nonzero"/></clipPath><clipPath id="4d8063a9a5"><path d="M 679.027344 16.171875 L 688.21875 16.171875 L 688.21875 41.796875 L 679.027344 41.796875 Z M 679.027344 16.171875 " clip-rule="nonzero"/></clipPath><clipPath id="37909c95b0"><path d="M 709 37.816406 L 721.519531 37.816406 L 721.519531 50 L 709 50 Z M 709 37.816406 " clip-rule="nonzero"/></clipPath><mask id="713670c78b"><g filter="url(#763b31c668)"><rect x="-81" width="972" fill="#000000" y="-26.249999" height="314.999991" fill-opacity="0.975"/></g></mask><clipPath id="29f3f96284"><path d="M 0.339844 0.816406 L 12 0.816406 L 12 12.585938 L 0.339844 12.585938 Z M 0.339844 0.816406 " clip-rule="nonzero"/></clipPath><clipPath id="4ca9601025"><rect x="0" width="13" y="0" height="13"/></clipPath><mask id="089fc04d18"><g filter="url(#763b31c668)"><rect x="-81" width="972" fill="#000000" y="-26.249999" height="314.999991" fill-opacity="0.974"/></g></mask><clipPath id="6390904c6d"><path d="M 1 0.328125 L 12.238281 0.328125 L 12.238281 11.585938 L 1 11.585938 Z M 1 0.328125 " clip-rule="nonzero"/></clipPath><clipPath id="17377e86f2"><rect x="0" width="13" y="0" height="12"/></clipPath><clipPath id="8e544a954a"><path d="M 676.605469 46 L 721.519531 46 L 721.519531 87.96875 L 676.605469 87.96875 Z M 676.605469 46 " clip-rule="nonzero"/></clipPath><mask id="1acc3406dd"><g filter="url(#763b31c668)"><rect x="-81" width="972" fill="#000000" y="-26.249999" height="314.999991" fill-opacity="0.982"/></g></mask><clipPath id="096034e354"><path d="M 0.605469 0.230469 L 45.519531 0.230469 L 45.519531 41.914062 L 0.605469 41.914062 Z M 0.605469 0.230469 " clip-rule="nonzero"/></clipPath><clipPath id="2a9455c199"><rect x="0" width="46" y="0" height="42"/></clipPath><clipPath id="0e519419b0"><path d="M 0.769531 77.722656 L 809.230469 77.722656 L 809.230469 200.664062 L 0.769531 200.664062 Z M 0.769531 77.722656 " clip-rule="nonzero"/></clipPath></defs><path stroke-linecap="round" transform="matrix(-0.748574, 0, 0, -0.748574, 689.857385, 17.753813)" fill="none" stroke-linejoin="miter" d="M 2.502104 2.499419 L 14.211867 2.499419 " stroke="#ffffff" stroke-width="5" stroke-opacity="1" stroke-miterlimit="4"/><path stroke-linecap="round" transform="matrix(0.748574, 0, 0, 0.748574, 669.212239, 86.753983)" fill="none" stroke-linejoin="miter" d="M 2.497805 2.499441 L 76.784874 2.499441 " stroke="#ffffff" stroke-width="5" stroke-opacity="1" stroke-miterlimit="4"/><g clip-path="url(#2ff8b1a66e)"><path fill="#ffffff" d="M 671.257812 49.324219 L 727.234375 49.324219 L 727.234375 89.242188 L 671.257812 89.242188 Z M 671.257812 49.324219 " fill-opacity="1" fill-rule="nonzero"/></g><g clip-path="url(#fbabe6969b)"><g clip-path="url(#1de6e9b7fb)"><path fill="#ffffff" d="M 663.171875 16.171875 L 735.4375 16.171875 L 735.4375 51.890625 L 663.171875 51.890625 Z M 663.171875 16.171875 " fill-opacity="1" fill-rule="nonzero"/></g></g><g clip-path="url(#4d8063a9a5)"><path fill="#ffffff" d="M 679.027344 16.171875 L 688.21875 16.171875 L 688.21875 41.808594 L 679.027344 41.808594 Z M 679.027344 16.171875 " fill-opacity="1" fill-rule="nonzero"/></g><path stroke-linecap="round" transform="matrix(-0.529322, -0.529322, 0.529322, -0.529322, 735.556552, 54.592119)" fill="none" stroke-linejoin="miter" d="M 2.501948 2.498425 L 70.919388 2.498425 " stroke="#ffffff" stroke-width="5" stroke-opacity="1" stroke-miterlimit="4"/><path stroke-linecap="round" transform="matrix(0.529384, -0.52926, 0.52926, 0.529384, 659.675477, 51.789443)" fill="none" stroke-linejoin="miter" d="M 2.498977 2.497672 L 33.918161 2.497681 " stroke="#ffffff" stroke-width="5" stroke-opacity="1" stroke-miterlimit="4"/><path stroke-linecap="round" transform="matrix(0, 0.748574, -0.748574, 0, 680.895624, 14.098095)" fill="none" stroke-linejoin="miter" d="M 2.498957 2.501004 L 27.760526 2.501004 " stroke="#ffffff" stroke-width="5" stroke-opacity="1" stroke-miterlimit="4"/><path stroke-linecap="round" transform="matrix(0, 0.748574, -0.748574, 0, 690.090965, 14.094661)" fill="none" stroke-linejoin="miter" d="M 2.498327 2.501041 L 16.128408 2.501041 " stroke="#ffffff" stroke-width="5" stroke-opacity="1" stroke-miterlimit="4"/><path stroke-linecap="round" transform="matrix(0.529322, -0.529322, 0.529322, 0.529322, 685.798437, 26.146962)" fill="none" stroke-linejoin="miter" d="M 2.498858 2.501645 L 22.778345 2.501645 " stroke="#ffffff" stroke-width="5" stroke-opacity="1" stroke-miterlimit="4"/><path stroke-linecap="round" transform="matrix(0, 0.748574, -0.748574, 0, 728.582117, 50.07381)" fill="none" stroke-linejoin="miter" d="M 2.50009 2.499659 L 51.676919 2.499659 " stroke="#ffffff" stroke-width="5" stroke-opacity="1" stroke-miterlimit="4"/><path stroke-linecap="round" transform="matrix(0, 0.748574, -0.748574, 0, 673.126287, 50.07381)" fill="none" stroke-linejoin="miter" d="M 2.50009 2.501264 L 51.676919 2.501264 " stroke="#ffffff" stroke-width="5" stroke-opacity="1" stroke-miterlimit="4"/><path stroke-linecap="round" transform="matrix(-0.748574, 0, 0, -0.748574, 672.996407, 53.707427)" fill="none" stroke-linejoin="miter" d="M 2.499962 2.500072 L 14.230598 2.500072 " stroke="#ffffff" stroke-width="5" stroke-opacity="1" stroke-miterlimit="4"/><path stroke-linecap="round" transform="matrix(-0.748574, 0, 0, -0.748574, 737.41074, 53.760387)" fill="none" stroke-linejoin="miter" d="M 2.500324 2.497765 L 14.23096 2.497765 " stroke="#ffffff" stroke-width="5" stroke-opacity="1" stroke-miterlimit="4"/><g clip-path="url(#37909c95b0)"><g mask="url(#713670c78b)"><g transform="matrix(1, 0, 0, 1, 709, 37)"><g clip-path="url(#4ca9601025)"><g clip-path="url(#29f3f96284)"><path fill="#008000" d="M 5.550781 0.878906 C 8.90625 0.832031 10.988281 2.425781 11.796875 5.664062 C 12.066406 9.195312 10.492188 11.394531 7.070312 12.261719 C 4.121094 12.570312 2.039062 11.382812 0.824219 8.703125 C -0.132812 5.335938 0.9375 2.863281 4.035156 1.289062 C 4.550781 1.128906 5.054688 0.992188 5.550781 0.878906 Z M 5.550781 0.878906 " fill-opacity="1" fill-rule="evenodd"/></g></g></g></g></g><g mask="url(#089fc04d18)"><g transform="matrix(1, 0, 0, 1, 688, 38)"><g clip-path="url(#17377e86f2)"><g clip-path="url(#6390904c6d)"><path fill="#008000" d="M 6.117188 0.460938 C 9.316406 0.472656 11.28125 2.03125 12.015625 5.132812 C 12.21875 8.429688 10.71875 10.476562 7.519531 11.261719 C 4.109375 11.507812 2.027344 9.972656 1.273438 6.652344 C 1.160156 3.214844 2.773438 1.152344 6.117188 0.460938 Z M 6.117188 0.460938 " fill-opacity="1" fill-rule="evenodd"/></g></g></g></g><g clip-path="url(#8e544a954a)"><g mask="url(#1acc3406dd)"><g transform="matrix(1, 0, 0, 1, 676, 46)"><g clip-path="url(#2a9455c199)"><g clip-path="url(#096034e354)"><path fill="#008000" d="M 29.210938 0.519531 C 32.445312 0.53125 34.917969 1.890625 36.625 4.605469 C 37.574219 6.953125 38.898438 9.054688 40.59375 10.910156 C 41.921875 12.277344 43.285156 13.597656 44.679688 14.878906 C 45.402344 15.914062 45.5 17.003906 44.972656 18.148438 C 45.261719 18.496094 45.476562 18.886719 45.617188 19.316406 C 45.722656 20.1875 45.683594 21.042969 45.5 21.886719 C 44.742188 22.53125 44.121094 22.414062 43.628906 21.535156 C 43.589844 20.953125 43.550781 20.367188 43.515625 19.785156 C 43.160156 19.460938 42.851562 19.5 42.578125 19.902344 C 42.539062 26.828125 42.5 33.757812 42.464844 40.683594 C 42.269531 41.101562 41.9375 41.296875 41.46875 41.269531 C 41.003906 41.296875 40.671875 41.101562 40.476562 40.683594 C 40.398438 33.601562 40.398438 26.515625 40.476562 19.433594 C 40.515625 19.285156 40.574219 19.148438 40.652344 19.023438 C 37.148438 16.960938 34.285156 14.214844 32.070312 10.792969 C 30.1875 13.140625 29.097656 15.824219 28.800781 18.851562 C 28.300781 22.34375 28.457031 25.808594 29.269531 29.242188 C 29.972656 32.761719 30.753906 36.261719 31.605469 39.75 C 31.847656 40.648438 31.515625 41.175781 30.613281 41.324219 C 29.484375 41.5 28.355469 41.675781 27.226562 41.851562 C 26.859375 41.835938 26.570312 41.679688 26.351562 41.382812 C 25.753906 38.222656 24.976562 35.105469 24.015625 32.042969 C 23.546875 34.921875 23.082031 37.804688 22.613281 40.683594 C 22.503906 40.925781 22.328125 41.101562 22.089844 41.210938 C 20.53125 41.289062 18.976562 41.289062 17.417969 41.210938 C 17.078125 40.996094 16.882812 40.6875 16.835938 40.273438 C 17.484375 37.570312 17.855469 34.824219 17.945312 32.042969 C 18.066406 27.289062 17.949219 22.542969 17.59375 17.800781 C 16.695312 16.9375 15.839844 16.042969 15.023438 15.113281 C 14.140625 20.75 14.238281 26.371094 15.316406 31.984375 C 15.320312 32.707031 14.96875 33.078125 14.265625 33.09375 C 14.773438 35.316406 15.296875 37.535156 15.84375 39.75 C 15.976562 40.253906 15.878906 40.703125 15.550781 41.09375 C 14.785156 41.222656 14.003906 41.28125 13.214844 41.269531 C 12.425781 41.28125 11.644531 41.222656 10.878906 41.09375 C 10.78125 40.996094 10.683594 40.898438 10.585938 40.800781 C 10.105469 39.238281 9.597656 37.679688 9.070312 36.128906 C 8.671875 37.890625 8.242188 39.640625 7.785156 41.382812 C 7.644531 41.566406 7.46875 41.703125 7.261719 41.792969 C 6.054688 41.871094 4.847656 41.871094 3.640625 41.792969 C 3.144531 41.625 2.875 41.273438 2.824219 40.742188 C 3.152344 38.199219 3.421875 35.648438 3.640625 33.09375 C 2.824219 33.113281 2.003906 33.09375 1.1875 33.035156 C 0.886719 32.925781 0.710938 32.714844 0.664062 32.394531 C 0.230469 23.472656 2.019531 15.027344 6.035156 7.058594 C 6.746094 5.832031 7.484375 4.625 8.253906 3.4375 C 10.234375 1.605469 12.433594 1.3125 14.847656 2.5625 C 15.535156 3.054688 16.101562 3.65625 16.542969 4.371094 C 17.152344 6.476562 17.972656 8.503906 18.996094 10.441406 C 20.289062 7.292969 22.175781 4.546875 24.65625 2.210938 C 26.015625 1.195312 27.535156 0.628906 29.210938 0.519531 Z M 29.210938 0.519531 " fill-opacity="1" fill-rule="evenodd"/></g></g></g></g></g><g clip-path="url(#0e519419b0)"><path fill="#ffffff" d="M 0.769531 77.722656 L 809.011719 77.722656 L 809.011719 200.664062 L 0.769531 200.664062 Z M 0.769531 77.722656 " fill-opacity="1" fill-rule="nonzero"/></g><g fill="#ffffff" fill-opacity="1"><g transform="translate(113.569336, 231.237614)"><g><path d="M 21.65625 -7.59375 C 20.488281 -7.4375 19.796875 -7.21875 19.578125 -6.9375 C 19.359375 -6.65625 19.25 -6.304688 19.25 -5.890625 L 19.25 -3.71875 C 19.25 -3.039062 19.265625 -2.359375 19.296875 -1.671875 C 18.347656 -1.097656 17.007812 -0.585938 15.28125 -0.140625 C 13.5625 0.296875 12.035156 0.515625 10.703125 0.515625 C 7.835938 0.515625 5.492188 -0.359375 3.671875 -2.109375 C 1.859375 -3.859375 0.953125 -6.203125 0.953125 -9.140625 C 0.953125 -12.117188 1.890625 -14.523438 3.765625 -16.359375 C 5.648438 -18.203125 8.148438 -19.125 11.265625 -19.125 C 13.078125 -19.125 14.796875 -18.71875 16.421875 -17.90625 L 17.265625 -18.625 L 18.390625 -18.625 L 18.5 -11.828125 L 17.375 -11.828125 C 16.71875 -13.835938 15.914062 -15.34375 14.96875 -16.34375 C 14.03125 -17.351562 12.859375 -17.859375 11.453125 -17.859375 C 9.785156 -17.859375 8.488281 -17.128906 7.5625 -15.671875 C 6.644531 -14.210938 6.1875 -12.179688 6.1875 -9.578125 C 6.1875 -6.796875 6.640625 -4.632812 7.546875 -3.09375 C 8.453125 -1.5625 9.71875 -0.796875 11.34375 -0.796875 C 12.726562 -0.796875 13.875 -1.1875 14.78125 -1.96875 L 14.78125 -5.75 C 14.78125 -6.21875 14.625 -6.585938 14.3125 -6.859375 C 14.007812 -7.140625 13.226562 -7.382812 11.96875 -7.59375 L 11.96875 -8.59375 L 21.65625 -8.59375 Z M 21.65625 -7.59375 "/></g></g><g transform="translate(135.274391, 231.237614)"><g><path d="M 18.390625 0 L 0.921875 0 L 0.921875 -1.03125 C 2.015625 -1.113281 2.738281 -1.253906 3.09375 -1.453125 C 3.445312 -1.660156 3.625 -2.066406 3.625 -2.671875 L 3.625 -15.8125 C 3.625 -16.363281 3.441406 -16.757812 3.078125 -17 C 2.722656 -17.25 2.003906 -17.453125 0.921875 -17.609375 L 0.921875 -18.625 L 17.421875 -18.625 L 17.421875 -13.875 L 16.421875 -13.875 C 16.160156 -14.613281 15.742188 -15.304688 15.171875 -15.953125 C 14.609375 -16.609375 14.097656 -17.019531 13.640625 -17.1875 C 13.191406 -17.363281 12.3125 -17.453125 11 -17.453125 L 8.3125 -17.453125 L 8.3125 -10.234375 L 10.21875 -10.234375 C 11.257812 -10.234375 12.023438 -10.476562 12.515625 -10.96875 C 13.003906 -11.46875 13.367188 -12.300781 13.609375 -13.46875 L 14.59375 -13.46875 L 14.59375 -5.703125 L 13.609375 -5.703125 C 13.316406 -7.078125 12.929688 -7.976562 12.453125 -8.40625 C 11.984375 -8.84375 11.238281 -9.0625 10.21875 -9.0625 L 8.3125 -9.0625 L 8.3125 -3.6875 C 8.3125 -2.726562 8.453125 -2.070312 8.734375 -1.71875 C 9.015625 -1.363281 9.882812 -1.1875 11.34375 -1.1875 C 12.59375 -1.1875 13.5 -1.238281 14.0625 -1.34375 C 14.625 -1.457031 15.035156 -1.617188 15.296875 -1.828125 C 15.566406 -2.035156 16 -2.628906 16.59375 -3.609375 C 17.195312 -4.585938 17.59375 -5.316406 17.78125 -5.796875 L 18.734375 -5.796875 Z M 18.390625 0 "/></g></g><g transform="translate(154.668442, 231.237614)"><g><path d="M 22.328125 -17.609375 C 22.210938 -17.585938 22.0625 -17.570312 21.875 -17.5625 C 20.914062 -17.445312 20.21875 -17.15625 19.78125 -16.6875 C 19.34375 -16.226562 19.125 -15.066406 19.125 -13.203125 L 19.125 0.109375 L 16.8125 0.109375 L 5.1875 -14.3125 L 5.1875 -5.5625 C 5.1875 -3.851562 5.382812 -2.726562 5.78125 -2.1875 C 6.175781 -1.644531 7.070312 -1.257812 8.46875 -1.03125 L 8.46875 0 L 0.453125 0 L 0.453125 -1.03125 C 1.828125 -1.1875 2.695312 -1.507812 3.0625 -2 C 3.4375 -2.5 3.625 -3.632812 3.625 -5.40625 L 3.625 -14.21875 C 3.625 -16.0625 2.539062 -17.179688 0.375 -17.578125 L 0.375 -18.625 L 7.390625 -18.625 L 17.578125 -6.03125 L 17.578125 -13.0625 C 17.578125 -14.769531 17.375 -15.894531 16.96875 -16.4375 C 16.570312 -16.988281 15.6875 -17.378906 14.3125 -17.609375 L 14.3125 -18.625 L 22.328125 -18.625 Z M 22.328125 -17.609375 "/></g></g><g transform="translate(177.226993, 231.237614)"><g><path d="M 18.875 -4.671875 C 17.195312 -1.210938 14.460938 0.515625 10.671875 0.515625 C 7.847656 0.515625 5.519531 -0.367188 3.6875 -2.140625 C 1.863281 -3.921875 0.953125 -6.253906 0.953125 -9.140625 C 0.953125 -12.078125 1.90625 -14.472656 3.8125 -16.328125 C 5.71875 -18.191406 8.132812 -19.125 11.0625 -19.125 C 12.875 -19.125 14.53125 -18.71875 16.03125 -17.90625 L 16.828125 -18.625 L 17.96875 -18.625 L 18.09375 -11.828125 L 16.9375 -11.828125 C 16.289062 -13.890625 15.503906 -15.410156 14.578125 -16.390625 C 13.660156 -17.367188 12.539062 -17.859375 11.21875 -17.859375 C 9.59375 -17.859375 8.34375 -17.15625 7.46875 -15.75 C 6.59375 -14.34375 6.15625 -12.285156 6.15625 -9.578125 C 6.15625 -6.878906 6.648438 -4.832031 7.640625 -3.4375 C 8.640625 -2.039062 10.046875 -1.34375 11.859375 -1.34375 C 14.191406 -1.34375 16.15625 -2.679688 17.75 -5.359375 Z M 18.875 -4.671875 "/></g></g><g transform="translate(196.450345, 231.237614)"><g><path d="M 0.828125 0 L 0.828125 -1.03125 C 2.203125 -1.082031 3.015625 -1.242188 3.265625 -1.515625 C 3.523438 -1.796875 3.65625 -2.160156 3.65625 -2.609375 L 3.65625 -15.8125 C 3.65625 -16.25 3.523438 -16.609375 3.265625 -16.890625 C 3.003906 -17.171875 2.191406 -17.410156 0.828125 -17.609375 L 0.828125 -18.625 L 11.15625 -18.625 L 11.15625 -17.609375 C 11.039062 -17.585938 10.894531 -17.570312 10.71875 -17.5625 C 9.695312 -17.445312 9.046875 -17.285156 8.765625 -17.078125 C 8.484375 -16.878906 8.34375 -16.5 8.34375 -15.9375 L 8.34375 -2.75 C 8.34375 -2.269531 8.488281 -1.890625 8.78125 -1.609375 C 9.082031 -1.335938 9.875 -1.144531 11.15625 -1.03125 L 11.15625 0 Z M 0.828125 0 "/></g></g><g transform="translate(208.438679, 231.237614)"><g><path d="M 10.984375 0 L 10.984375 -1.03125 C 12.734375 -1.1875 13.609375 -1.429688 13.609375 -1.765625 C 13.609375 -1.941406 13.5625 -2.140625 13.46875 -2.359375 L 11.890625 -6.234375 L 5.46875 -6.234375 C 4.582031 -4.117188 4.140625 -2.765625 4.140625 -2.171875 C 4.140625 -1.585938 5.0625 -1.207031 6.90625 -1.03125 L 6.90625 0 L -0.71875 0 L -0.71875 -1.03125 C 0.0507812 -1.082031 0.679688 -1.242188 1.171875 -1.515625 C 1.671875 -1.796875 2.019531 -2.117188 2.21875 -2.484375 C 2.414062 -2.847656 3.242188 -4.796875 4.703125 -8.328125 L 9.0625 -18.90625 L 11.703125 -18.90625 L 17.171875 -5.296875 C 17.910156 -3.460938 18.375 -2.421875 18.5625 -2.171875 C 18.75 -1.921875 19.035156 -1.679688 19.421875 -1.453125 C 19.816406 -1.234375 20.390625 -1.09375 21.140625 -1.03125 L 21.140625 0 Z M 8.625 -14.265625 L 5.96875 -7.53125 L 11.34375 -7.53125 Z M 8.625 -14.265625 "/></g></g><g transform="translate(228.817533, 231.237614)"><g/></g><g transform="translate(235.645499, 231.237614)"><g><path d="M 0.921875 0 L 0.921875 -1.03125 C 2.203125 -1.070312 2.972656 -1.238281 3.234375 -1.53125 C 3.492188 -1.832031 3.625 -2.191406 3.625 -2.609375 L 3.625 -15.8125 C 3.625 -16.332031 3.460938 -16.726562 3.140625 -17 C 2.828125 -17.28125 2.078125 -17.484375 0.890625 -17.609375 L 0.890625 -18.625 L 10.78125 -18.625 C 13.800781 -18.625 16.335938 -17.8125 18.390625 -16.1875 C 20.453125 -14.5625 21.484375 -12.226562 21.484375 -9.1875 C 21.484375 -6.332031 20.445312 -4.085938 18.375 -2.453125 C 16.300781 -0.816406 13.609375 0 10.296875 0 Z M 8.3125 -17.375 L 8.3125 -3.25 C 8.3125 -1.875 9.117188 -1.1875 10.734375 -1.1875 C 14.398438 -1.1875 16.234375 -3.851562 16.234375 -9.1875 C 16.234375 -11.75 15.695312 -13.757812 14.625 -15.21875 C 13.5625 -16.6875 12.09375 -17.421875 10.21875 -17.421875 C 9.40625 -17.421875 8.769531 -17.40625 8.3125 -17.375 Z M 8.3125 -17.375 "/></g></g><g transform="translate(258.072743, 231.237614)"><g><path d="M 18.390625 0 L 0.921875 0 L 0.921875 -1.03125 C 2.015625 -1.113281 2.738281 -1.253906 3.09375 -1.453125 C 3.445312 -1.660156 3.625 -2.066406 3.625 -2.671875 L 3.625 -15.8125 C 3.625 -16.363281 3.441406 -16.757812 3.078125 -17 C 2.722656 -17.25 2.003906 -17.453125 0.921875 -17.609375 L 0.921875 -18.625 L 17.421875 -18.625 L 17.421875 -13.875 L 16.421875 -13.875 C 16.160156 -14.613281 15.742188 -15.304688 15.171875 -15.953125 C 14.609375 -16.609375 14.097656 -17.019531 13.640625 -17.1875 C 13.191406 -17.363281 12.3125 -17.453125 11 -17.453125 L 8.3125 -17.453125 L 8.3125 -10.234375 L 10.21875 -10.234375 C 11.257812 -10.234375 12.023438 -10.476562 12.515625 -10.96875 C 13.003906 -11.46875 13.367188 -12.300781 13.609375 -13.46875 L 14.59375 -13.46875 L 14.59375 -5.703125 L 13.609375 -5.703125 C 13.316406 -7.078125 12.929688 -7.976562 12.453125 -8.40625 C 11.984375 -8.84375 11.238281 -9.0625 10.21875 -9.0625 L 8.3125 -9.0625 L 8.3125 -3.6875 C 8.3125 -2.726562 8.453125 -2.070312 8.734375 -1.71875 C 9.015625 -1.363281 9.882812 -1.1875 11.34375 -1.1875 C 12.59375 -1.1875 13.5 -1.238281 14.0625 -1.34375 C 14.625 -1.457031 15.035156 -1.617188 15.296875 -1.828125 C 15.566406 -2.035156 16 -2.628906 16.59375 -3.609375 C 17.195312 -4.585938 17.59375 -5.316406 17.78125 -5.796875 L 18.734375 -5.796875 Z M 18.390625 0 "/></g></g></g><g fill="#ffffff" fill-opacity="1"><g transform="translate(86.993624, 232.918339)"><g><path d="M 13.71875 0 L 13.71875 -1.28125 C 15.90625 -1.476562 17 -1.789062 17 -2.21875 C 17 -2.4375 16.945312 -2.679688 16.84375 -2.953125 L 14.859375 -7.796875 L 6.828125 -7.796875 C 5.722656 -5.148438 5.171875 -3.457031 5.171875 -2.71875 C 5.171875 -1.988281 6.320312 -1.507812 8.625 -1.28125 L 8.625 0 L -0.90625 0 L -0.90625 -1.28125 C 0.0625 -1.34375 0.851562 -1.546875 1.46875 -1.890625 C 2.082031 -2.242188 2.515625 -2.648438 2.765625 -3.109375 C 3.023438 -3.566406 4.0625 -6 5.875 -10.40625 L 11.328125 -23.625 L 14.625 -23.625 L 21.46875 -6.625 C 22.382812 -4.332031 22.957031 -3.03125 23.1875 -2.71875 C 23.425781 -2.40625 23.789062 -2.109375 24.28125 -1.828125 C 24.769531 -1.546875 25.484375 -1.363281 26.421875 -1.28125 L 26.421875 0 Z M 10.78125 -17.84375 L 7.46875 -9.40625 L 14.171875 -9.40625 Z M 10.78125 -17.84375 "/></g></g></g><g fill="#ffffff" fill-opacity="1"><g transform="translate(282.482732, 232.918339)"><g><path d="M 22.984375 0 L 1.15625 0 L 1.15625 -1.28125 C 2.519531 -1.382812 3.421875 -1.566406 3.859375 -1.828125 C 4.304688 -2.085938 4.53125 -2.585938 4.53125 -3.328125 L 4.53125 -19.765625 C 4.53125 -20.453125 4.304688 -20.945312 3.859375 -21.25 C 3.410156 -21.5625 2.507812 -21.8125 1.15625 -22 L 1.15625 -23.28125 L 21.78125 -23.28125 L 21.78125 -17.34375 L 20.53125 -17.34375 C 20.195312 -18.257812 19.675781 -19.125 18.96875 -19.9375 C 18.257812 -20.757812 17.625 -21.273438 17.0625 -21.484375 C 16.5 -21.703125 15.394531 -21.8125 13.75 -21.8125 L 10.390625 -21.8125 L 10.390625 -12.796875 L 12.765625 -12.796875 C 14.066406 -12.796875 15.023438 -13.101562 15.640625 -13.71875 C 16.253906 -14.332031 16.707031 -15.375 17 -16.84375 L 18.25 -16.84375 L 18.25 -7.125 L 17 -7.125 C 16.632812 -8.851562 16.15625 -9.984375 15.5625 -10.515625 C 14.976562 -11.054688 14.046875 -11.328125 12.765625 -11.328125 L 10.390625 -11.328125 L 10.390625 -4.609375 C 10.390625 -3.410156 10.5625 -2.585938 10.90625 -2.140625 C 11.257812 -1.703125 12.347656 -1.484375 14.171875 -1.484375 C 15.742188 -1.484375 16.878906 -1.550781 17.578125 -1.6875 C 18.273438 -1.820312 18.789062 -2.019531 19.125 -2.28125 C 19.457031 -2.539062 20 -3.28125 20.75 -4.5 C 21.5 -5.726562 21.988281 -6.644531 22.21875 -7.25 L 23.421875 -7.25 Z M 22.984375 0 "/></g></g></g><g fill="#ffffff" fill-opacity="1"><g transform="translate(306.033137, 231.237614)"><g><path d="M 22.328125 -17.609375 C 22.210938 -17.585938 22.0625 -17.570312 21.875 -17.5625 C 20.914062 -17.445312 20.21875 -17.15625 19.78125 -16.6875 C 19.34375 -16.226562 19.125 -15.066406 19.125 -13.203125 L 19.125 0.109375 L 16.8125 0.109375 L 5.1875 -14.3125 L 5.1875 -5.5625 C 5.1875 -3.851562 5.382812 -2.726562 5.78125 -2.1875 C 6.175781 -1.644531 7.070312 -1.257812 8.46875 -1.03125 L 8.46875 0 L 0.453125 0 L 0.453125 -1.03125 C 1.828125 -1.1875 2.695312 -1.507812 3.0625 -2 C 3.4375 -2.5 3.625 -3.632812 3.625 -5.40625 L 3.625 -14.21875 C 3.625 -16.0625 2.539062 -17.179688 0.375 -17.578125 L 0.375 -18.625 L 7.390625 -18.625 L 17.578125 -6.03125 L 17.578125 -13.0625 C 17.578125 -14.769531 17.375 -15.894531 16.96875 -16.4375 C 16.570312 -16.988281 15.6875 -17.378906 14.3125 -17.609375 L 14.3125 -18.625 L 22.328125 -18.625 Z M 22.328125 -17.609375 "/></g></g><g transform="translate(328.591688, 231.237614)"><g><path d="M 16.65625 -13.65625 C 16.332031 -14.488281 15.859375 -15.28125 15.234375 -16.03125 C 14.617188 -16.78125 14.050781 -17.203125 13.53125 -17.296875 C 13.007812 -17.398438 12.238281 -17.453125 11.21875 -17.453125 L 8.3125 -17.453125 L 8.3125 -10.140625 L 10.140625 -10.140625 C 11.296875 -10.140625 12.101562 -10.421875 12.5625 -10.984375 C 13.019531 -11.554688 13.347656 -12.347656 13.546875 -13.359375 L 14.546875 -13.359375 L 14.546875 -5.546875 L 13.546875 -5.546875 C 13.523438 -5.890625 13.367188 -6.414062 13.078125 -7.125 C 12.785156 -7.832031 12.410156 -8.304688 11.953125 -8.546875 C 11.503906 -8.796875 10.898438 -8.921875 10.140625 -8.921875 L 8.3125 -8.921875 L 8.3125 -2.75 C 8.3125 -2.332031 8.4375 -1.972656 8.6875 -1.671875 C 8.945312 -1.378906 9.703125 -1.164062 10.953125 -1.03125 L 10.953125 0 L 0.921875 0 L 0.921875 -1.03125 C 2.078125 -1.113281 2.816406 -1.265625 3.140625 -1.484375 C 3.460938 -1.710938 3.625 -2.109375 3.625 -2.671875 L 3.625 -15.8125 C 3.625 -16.375 3.441406 -16.769531 3.078125 -17 C 2.710938 -17.238281 1.992188 -17.441406 0.921875 -17.609375 L 0.921875 -18.625 L 17.640625 -18.625 L 17.640625 -13.65625 Z M 16.65625 -13.65625 "/></g></g><g transform="translate(346.633276, 231.237614)"><g><path d="M 18.390625 0 L 0.921875 0 L 0.921875 -1.03125 C 2.015625 -1.113281 2.738281 -1.253906 3.09375 -1.453125 C 3.445312 -1.660156 3.625 -2.066406 3.625 -2.671875 L 3.625 -15.8125 C 3.625 -16.363281 3.441406 -16.757812 3.078125 -17 C 2.722656 -17.25 2.003906 -17.453125 0.921875 -17.609375 L 0.921875 -18.625 L 17.421875 -18.625 L 17.421875 -13.875 L 16.421875 -13.875 C 16.160156 -14.613281 15.742188 -15.304688 15.171875 -15.953125 C 14.609375 -16.609375 14.097656 -17.019531 13.640625 -17.1875 C 13.191406 -17.363281 12.3125 -17.453125 11 -17.453125 L 8.3125 -17.453125 L 8.3125 -10.234375 L 10.21875 -10.234375 C 11.257812 -10.234375 12.023438 -10.476562 12.515625 -10.96875 C 13.003906 -11.46875 13.367188 -12.300781 13.609375 -13.46875 L 14.59375 -13.46875 L 14.59375 -5.703125 L 13.609375 -5.703125 C 13.316406 -7.078125 12.929688 -7.976562 12.453125 -8.40625 C 11.984375 -8.84375 11.238281 -9.0625 10.21875 -9.0625 L 8.3125 -9.0625 L 8.3125 -3.6875 C 8.3125 -2.726562 8.453125 -2.070312 8.734375 -1.71875 C 9.015625 -1.363281 9.882812 -1.1875 11.34375 -1.1875 C 12.59375 -1.1875 13.5 -1.238281 14.0625 -1.34375 C 14.625 -1.457031 15.035156 -1.617188 15.296875 -1.828125 C 15.566406 -2.035156 16 -2.628906 16.59375 -3.609375 C 17.195312 -4.585938 17.59375 -5.316406 17.78125 -5.796875 L 18.734375 -5.796875 Z M 18.390625 0 "/></g></g><g transform="translate(366.027327, 231.237614)"><g><path d="M 15.140625 0 C 13.191406 -3.03125 11.144531 -5.835938 9 -8.421875 L 8.3125 -8.421875 L 8.3125 -2.75 C 8.3125 -2.226562 8.46875 -1.835938 8.78125 -1.578125 C 9.101562 -1.328125 9.785156 -1.144531 10.828125 -1.03125 L 10.828125 0 L 0.921875 0 L 0.921875 -1.03125 C 2.078125 -1.113281 2.816406 -1.269531 3.140625 -1.5 C 3.460938 -1.726562 3.625 -2.117188 3.625 -2.671875 L 3.625 -15.8125 C 3.625 -16.351562 3.460938 -16.738281 3.140625 -16.96875 C 2.828125 -17.195312 2.085938 -17.410156 0.921875 -17.609375 L 0.921875 -18.625 L 11.34375 -18.625 C 16.113281 -18.625 18.5 -17.15625 18.5 -14.21875 C 18.5 -11.78125 16.984375 -10.113281 13.953125 -9.21875 L 17.6875 -4.4375 C 18.800781 -3.019531 19.546875 -2.148438 19.921875 -1.828125 C 20.304688 -1.515625 20.609375 -1.320312 20.828125 -1.25 C 21.054688 -1.175781 21.546875 -1.101562 22.296875 -1.03125 L 22.296875 0 Z M 8.3125 -17.421875 L 8.3125 -9.625 L 9.3125 -9.625 C 12.007812 -9.625 13.359375 -11.035156 13.359375 -13.859375 C 13.359375 -16.234375 12.015625 -17.421875 9.328125 -17.421875 Z M 8.3125 -17.421875 "/></g></g><g transform="translate(387.456638, 231.237614)"><g><path d="M 16.40625 0 L 16.40625 -1.03125 C 17.59375 -1.09375 18.367188 -1.253906 18.734375 -1.515625 C 19.109375 -1.785156 19.296875 -2.203125 19.296875 -2.765625 L 19.296875 -16.671875 L 12.875 -0.296875 L 11.234375 -0.296875 C 11.171875 -0.515625 10.726562 -1.773438 9.90625 -4.078125 L 5.1875 -16.890625 L 5.1875 -5.5625 C 5.1875 -4.445312 5.273438 -3.539062 5.453125 -2.84375 C 5.640625 -2.15625 6.109375 -1.691406 6.859375 -1.453125 C 7.609375 -1.210938 8.144531 -1.070312 8.46875 -1.03125 L 8.46875 0 L 0.453125 0 L 0.453125 -1.03125 C 1.742188 -1.125 2.59375 -1.425781 3 -1.9375 C 3.414062 -2.445312 3.625 -3.601562 3.625 -5.40625 L 3.625 -14.625 C 3.625 -15.675781 3.375 -16.414062 2.875 -16.84375 C 2.375 -17.28125 1.613281 -17.535156 0.59375 -17.609375 L 0.59375 -18.625 L 9.171875 -18.625 L 13.78125 -6.3125 L 17.640625 -16.328125 C 17.878906 -16.953125 18.078125 -17.71875 18.234375 -18.625 L 26.484375 -18.625 L 26.484375 -17.609375 C 25.210938 -17.472656 24.460938 -17.273438 24.234375 -17.015625 C 24.003906 -16.753906 23.890625 -16.394531 23.890625 -15.9375 L 23.890625 -2.75 C 23.890625 -2.300781 24.023438 -1.9375 24.296875 -1.65625 C 24.578125 -1.375 25.316406 -1.164062 26.515625 -1.03125 L 26.515625 0 Z M 16.40625 0 "/></g></g><g transform="translate(414.965464, 231.237614)"><g><path d="M 18.390625 0 L 0.921875 0 L 0.921875 -1.03125 C 2.015625 -1.113281 2.738281 -1.253906 3.09375 -1.453125 C 3.445312 -1.660156 3.625 -2.066406 3.625 -2.671875 L 3.625 -15.8125 C 3.625 -16.363281 3.441406 -16.757812 3.078125 -17 C 2.722656 -17.25 2.003906 -17.453125 0.921875 -17.609375 L 0.921875 -18.625 L 17.421875 -18.625 L 17.421875 -13.875 L 16.421875 -13.875 C 16.160156 -14.613281 15.742188 -15.304688 15.171875 -15.953125 C 14.609375 -16.609375 14.097656 -17.019531 13.640625 -17.1875 C 13.191406 -17.363281 12.3125 -17.453125 11 -17.453125 L 8.3125 -17.453125 L 8.3125 -10.234375 L 10.21875 -10.234375 C 11.257812 -10.234375 12.023438 -10.476562 12.515625 -10.96875 C 13.003906 -11.46875 13.367188 -12.300781 13.609375 -13.46875 L 14.59375 -13.46875 L 14.59375 -5.703125 L 13.609375 -5.703125 C 13.316406 -7.078125 12.929688 -7.976562 12.453125 -8.40625 C 11.984375 -8.84375 11.238281 -9.0625 10.21875 -9.0625 L 8.3125 -9.0625 L 8.3125 -3.6875 C 8.3125 -2.726562 8.453125 -2.070312 8.734375 -1.71875 C 9.015625 -1.363281 9.882812 -1.1875 11.34375 -1.1875 C 12.59375 -1.1875 13.5 -1.238281 14.0625 -1.34375 C 14.625 -1.457031 15.035156 -1.617188 15.296875 -1.828125 C 15.566406 -2.035156 16 -2.628906 16.59375 -3.609375 C 17.195312 -4.585938 17.59375 -5.316406 17.78125 -5.796875 L 18.734375 -5.796875 Z M 18.390625 0 "/></g></g><g transform="translate(434.359516, 231.237614)"><g><path d="M 15.140625 0 C 13.191406 -3.03125 11.144531 -5.835938 9 -8.421875 L 8.3125 -8.421875 L 8.3125 -2.75 C 8.3125 -2.226562 8.46875 -1.835938 8.78125 -1.578125 C 9.101562 -1.328125 9.785156 -1.144531 10.828125 -1.03125 L 10.828125 0 L 0.921875 0 L 0.921875 -1.03125 C 2.078125 -1.113281 2.816406 -1.269531 3.140625 -1.5 C 3.460938 -1.726562 3.625 -2.117188 3.625 -2.671875 L 3.625 -15.8125 C 3.625 -16.351562 3.460938 -16.738281 3.140625 -16.96875 C 2.828125 -17.195312 2.085938 -17.410156 0.921875 -17.609375 L 0.921875 -18.625 L 11.34375 -18.625 C 16.113281 -18.625 18.5 -17.15625 18.5 -14.21875 C 18.5 -11.78125 16.984375 -10.113281 13.953125 -9.21875 L 17.6875 -4.4375 C 18.800781 -3.019531 19.546875 -2.148438 19.921875 -1.828125 C 20.304688 -1.515625 20.609375 -1.320312 20.828125 -1.25 C 21.054688 -1.175781 21.546875 -1.101562 22.296875 -1.03125 L 22.296875 0 Z M 8.3125 -17.421875 L 8.3125 -9.625 L 9.3125 -9.625 C 12.007812 -9.625 13.359375 -11.035156 13.359375 -13.859375 C 13.359375 -16.234375 12.015625 -17.421875 9.328125 -17.421875 Z M 8.3125 -17.421875 "/></g></g><g transform="translate(455.788826, 231.237614)"><g><path d="M 0.828125 0 L 0.828125 -1.03125 C 2.203125 -1.082031 3.015625 -1.242188 3.265625 -1.515625 C 3.523438 -1.796875 3.65625 -2.160156 3.65625 -2.609375 L 3.65625 -15.8125 C 3.65625 -16.25 3.523438 -16.609375 3.265625 -16.890625 C 3.003906 -17.171875 2.191406 -17.410156 0.828125 -17.609375 L 0.828125 -18.625 L 11.15625 -18.625 L 11.15625 -17.609375 C 11.039062 -17.585938 10.894531 -17.570312 10.71875 -17.5625 C 9.695312 -17.445312 9.046875 -17.285156 8.765625 -17.078125 C 8.484375 -16.878906 8.34375 -16.5 8.34375 -15.9375 L 8.34375 -2.75 C 8.34375 -2.269531 8.488281 -1.890625 8.78125 -1.609375 C 9.082031 -1.335938 9.875 -1.144531 11.15625 -1.03125 L 11.15625 0 Z M 2.640625 -19.5 L 2.1875 -20.03125 C 3.3125 -21.070312 4.476562 -22.238281 5.6875 -23.53125 C 6.289062 -24.195312 6.9375 -24.53125 7.625 -24.53125 C 8.175781 -24.53125 8.640625 -24.40625 9.015625 -24.15625 C 9.390625 -23.914062 9.578125 -23.597656 9.578125 -23.203125 C 9.578125 -22.742188 9.394531 -22.382812 9.03125 -22.125 C 8.675781 -21.863281 7.679688 -21.4375 6.046875 -20.84375 C 5.066406 -20.476562 3.929688 -20.03125 2.640625 -19.5 Z M 2.640625 -19.5 "/></g></g><g transform="translate(467.777159, 231.237614)"><g><path d="M 10.984375 0 L 10.984375 -1.03125 C 12.734375 -1.1875 13.609375 -1.429688 13.609375 -1.765625 C 13.609375 -1.941406 13.5625 -2.140625 13.46875 -2.359375 L 11.890625 -6.234375 L 5.46875 -6.234375 C 4.582031 -4.117188 4.140625 -2.765625 4.140625 -2.171875 C 4.140625 -1.585938 5.0625 -1.207031 6.90625 -1.03125 L 6.90625 0 L -0.71875 0 L -0.71875 -1.03125 C 0.0507812 -1.082031 0.679688 -1.242188 1.171875 -1.515625 C 1.671875 -1.796875 2.019531 -2.117188 2.21875 -2.484375 C 2.414062 -2.847656 3.242188 -4.796875 4.703125 -8.328125 L 9.0625 -18.90625 L 11.703125 -18.90625 L 17.171875 -5.296875 C 17.910156 -3.460938 18.375 -2.421875 18.5625 -2.171875 C 18.75 -1.921875 19.035156 -1.679688 19.421875 -1.453125 C 19.816406 -1.234375 20.390625 -1.09375 21.140625 -1.03125 L 21.140625 0 Z M 8.625 -14.265625 L 5.96875 -7.53125 L 11.34375 -7.53125 Z M 8.625 -14.265625 "/></g></g><g transform="translate(488.156013, 231.237614)"><g/></g><g transform="translate(494.98398, 231.237614)"><g><path d="M 20.578125 -17.609375 C 19.898438 -17.515625 19.316406 -17.320312 18.828125 -17.03125 C 18.347656 -16.75 17.8125 -16.203125 17.21875 -15.390625 C 16.632812 -14.578125 15.738281 -13.222656 14.53125 -11.328125 C 13.320312 -9.429688 12.632812 -8.265625 12.46875 -7.828125 C 12.300781 -7.390625 12.21875 -6.609375 12.21875 -5.484375 L 12.21875 -2.84375 C 12.21875 -2.070312 12.554688 -1.585938 13.234375 -1.390625 C 13.921875 -1.203125 14.539062 -1.082031 15.09375 -1.03125 L 15.09375 0 L 4.671875 0 L 4.671875 -1.03125 C 5.910156 -1.113281 6.695312 -1.265625 7.03125 -1.484375 C 7.375 -1.703125 7.546875 -2.113281 7.546875 -2.71875 L 7.546875 -6 C 7.546875 -6.757812 7.457031 -7.320312 7.28125 -7.6875 C 7.113281 -8.050781 6.300781 -9.457031 4.84375 -11.90625 C 3.394531 -14.351562 2.5 -15.789062 2.15625 -16.21875 C 1.820312 -16.644531 1.421875 -16.96875 0.953125 -17.1875 C 0.492188 -17.414062 -0.0859375 -17.554688 -0.796875 -17.609375 L -0.796875 -18.625 L 9.875 -18.625 L 9.875 -17.609375 C 9.632812 -17.585938 9.375 -17.570312 9.09375 -17.5625 C 7.9375 -17.507812 7.359375 -17.300781 7.359375 -16.9375 C 7.359375 -16.507812 8.78125 -13.921875 11.625 -9.171875 C 14.53125 -13.753906 15.984375 -16.238281 15.984375 -16.625 C 15.984375 -17.1875 15.207031 -17.515625 13.65625 -17.609375 L 13.65625 -18.625 L 20.578125 -18.625 Z M 20.578125 -17.609375 "/></g></g></g><g fill="#ffffff" fill-opacity="1"><g transform="translate(520.315486, 232.918339)"><g><path d="M 23.59375 -5.84375 C 21.5 -1.519531 18.082031 0.640625 13.34375 0.640625 C 9.8125 0.640625 6.898438 -0.460938 4.609375 -2.671875 C 2.328125 -4.890625 1.1875 -7.804688 1.1875 -11.421875 C 1.1875 -15.097656 2.378906 -18.09375 4.765625 -20.40625 C 7.148438 -22.726562 10.164062 -23.890625 13.8125 -23.890625 C 16.082031 -23.890625 18.15625 -23.390625 20.03125 -22.390625 L 21.03125 -23.28125 L 22.453125 -23.28125 L 22.609375 -14.78125 L 21.171875 -14.78125 C 20.359375 -17.363281 19.378906 -19.265625 18.234375 -20.484375 C 17.085938 -21.703125 15.679688 -22.3125 14.015625 -22.3125 C 11.992188 -22.3125 10.4375 -21.429688 9.34375 -19.671875 C 8.25 -17.921875 7.703125 -15.351562 7.703125 -11.96875 C 7.703125 -8.59375 8.320312 -6.03125 9.5625 -4.28125 C 10.800781 -2.539062 12.550781 -1.671875 14.8125 -1.671875 C 17.738281 -1.671875 20.195312 -3.347656 22.1875 -6.703125 Z M 23.59375 -5.84375 "/></g></g></g><g fill="#ffffff" fill-opacity="1"><g transform="translate(544.154742, 231.106337)"><g><path d="M 22.375 -17.609375 C 20.8125 -17.410156 19.878906 -17.023438 19.578125 -16.453125 C 19.285156 -15.878906 19.140625 -14.796875 19.140625 -13.203125 L 19.140625 -6.265625 C 19.140625 -4.203125 18.441406 -2.554688 17.046875 -1.328125 C 15.648438 -0.0976562 13.832031 0.515625 11.59375 0.515625 C 8.945312 0.515625 6.894531 -0.078125 5.4375 -1.265625 C 3.976562 -2.453125 3.25 -4.128906 3.25 -6.296875 L 3.25 -15.828125 C 3.25 -16.785156 2.539062 -17.367188 1.125 -17.578125 L 0.75 -17.640625 L 0.75 -18.625 L 10.515625 -18.625 L 10.515625 -17.640625 C 9.398438 -17.515625 8.691406 -17.34375 8.390625 -17.125 C 8.085938 -16.914062 7.9375 -16.535156 7.9375 -15.984375 L 7.9375 -6.5625 C 7.9375 -3.03125 9.53125 -1.265625 12.71875 -1.265625 C 14.25 -1.265625 15.441406 -1.738281 16.296875 -2.6875 C 17.148438 -3.644531 17.578125 -5 17.578125 -6.75 L 17.578125 -13.0625 C 17.578125 -14.8125 17.367188 -15.957031 16.953125 -16.5 C 16.546875 -17.039062 15.648438 -17.410156 14.265625 -17.609375 L 14.265625 -18.625 L 22.375 -18.625 Z M 22.375 -17.609375 "/></g></g><g transform="translate(566.555725, 231.106337)"><g><path d="M 0.828125 0 L 0.828125 -1.03125 C 2.203125 -1.082031 3.015625 -1.242188 3.265625 -1.515625 C 3.523438 -1.796875 3.65625 -2.160156 3.65625 -2.609375 L 3.65625 -15.8125 C 3.65625 -16.25 3.523438 -16.609375 3.265625 -16.890625 C 3.003906 -17.171875 2.191406 -17.410156 0.828125 -17.609375 L 0.828125 -18.625 L 11.15625 -18.625 L 11.15625 -17.609375 C 11.039062 -17.585938 10.894531 -17.570312 10.71875 -17.5625 C 9.695312 -17.445312 9.046875 -17.285156 8.765625 -17.078125 C 8.484375 -16.878906 8.34375 -16.5 8.34375 -15.9375 L 8.34375 -2.75 C 8.34375 -2.269531 8.488281 -1.890625 8.78125 -1.609375 C 9.082031 -1.335938 9.875 -1.144531 11.15625 -1.03125 L 11.15625 0 Z M 0.828125 0 "/></g></g><g transform="translate(578.544058, 231.106337)"><g><path d="M 0.921875 0 L 0.921875 -1.03125 C 2.203125 -1.070312 2.972656 -1.238281 3.234375 -1.53125 C 3.492188 -1.832031 3.625 -2.191406 3.625 -2.609375 L 3.625 -15.8125 C 3.625 -16.332031 3.460938 -16.726562 3.140625 -17 C 2.828125 -17.28125 2.078125 -17.484375 0.890625 -17.609375 L 0.890625 -18.625 L 10.78125 -18.625 C 13.800781 -18.625 16.335938 -17.8125 18.390625 -16.1875 C 20.453125 -14.5625 21.484375 -12.226562 21.484375 -9.1875 C 21.484375 -6.332031 20.445312 -4.085938 18.375 -2.453125 C 16.300781 -0.816406 13.609375 0 10.296875 0 Z M 8.3125 -17.375 L 8.3125 -3.25 C 8.3125 -1.875 9.117188 -1.1875 10.734375 -1.1875 C 14.398438 -1.1875 16.234375 -3.851562 16.234375 -9.1875 C 16.234375 -11.75 15.695312 -13.757812 14.625 -15.21875 C 13.5625 -16.6875 12.09375 -17.421875 10.21875 -17.421875 C 9.40625 -17.421875 8.769531 -17.40625 8.3125 -17.375 Z M 8.3125 -17.375 "/></g></g><g transform="translate(600.971302, 231.106337)"><g><path d="M 10.984375 0 L 10.984375 -1.03125 C 12.734375 -1.1875 13.609375 -1.429688 13.609375 -1.765625 C 13.609375 -1.941406 13.5625 -2.140625 13.46875 -2.359375 L 11.890625 -6.234375 L 5.46875 -6.234375 C 4.582031 -4.117188 4.140625 -2.765625 4.140625 -2.171875 C 4.140625 -1.585938 5.0625 -1.207031 6.90625 -1.03125 L 6.90625 0 L -0.71875 0 L -0.71875 -1.03125 C 0.0507812 -1.082031 0.679688 -1.242188 1.171875 -1.515625 C 1.671875 -1.796875 2.019531 -2.117188 2.21875 -2.484375 C 2.414062 -2.847656 3.242188 -4.796875 4.703125 -8.328125 L 9.0625 -18.90625 L 11.703125 -18.90625 L 17.171875 -5.296875 C 17.910156 -3.460938 18.375 -2.421875 18.5625 -2.171875 C 18.75 -1.921875 19.035156 -1.679688 19.421875 -1.453125 C 19.816406 -1.234375 20.390625 -1.09375 21.140625 -1.03125 L 21.140625 0 Z M 8.625 -14.265625 L 5.96875 -7.53125 L 11.34375 -7.53125 Z M 8.625 -14.265625 "/></g></g><g transform="translate(621.350156, 231.106337)"><g><path d="M 0.921875 0 L 0.921875 -1.03125 C 2.203125 -1.070312 2.972656 -1.238281 3.234375 -1.53125 C 3.492188 -1.832031 3.625 -2.191406 3.625 -2.609375 L 3.625 -15.8125 C 3.625 -16.332031 3.460938 -16.726562 3.140625 -17 C 2.828125 -17.28125 2.078125 -17.484375 0.890625 -17.609375 L 0.890625 -18.625 L 10.78125 -18.625 C 13.800781 -18.625 16.335938 -17.8125 18.390625 -16.1875 C 20.453125 -14.5625 21.484375 -12.226562 21.484375 -9.1875 C 21.484375 -6.332031 20.445312 -4.085938 18.375 -2.453125 C 16.300781 -0.816406 13.609375 0 10.296875 0 Z M 8.3125 -17.375 L 8.3125 -3.25 C 8.3125 -1.875 9.117188 -1.1875 10.734375 -1.1875 C 14.398438 -1.1875 16.234375 -3.851562 16.234375 -9.1875 C 16.234375 -11.75 15.695312 -13.757812 14.625 -15.21875 C 13.5625 -16.6875 12.09375 -17.421875 10.21875 -17.421875 C 9.40625 -17.421875 8.769531 -17.40625 8.3125 -17.375 Z M 8.3125 -17.375 "/></g></g><g transform="translate(643.7774, 231.106337)"><g><path d="M 10.953125 0.515625 C 8.128906 0.515625 5.753906 -0.382812 3.828125 -2.1875 C 1.910156 -4 0.953125 -6.304688 0.953125 -9.109375 C 0.953125 -12.085938 1.90625 -14.503906 3.8125 -16.359375 C 5.71875 -18.210938 8.125 -19.140625 11.03125 -19.140625 C 13.894531 -19.140625 16.289062 -18.238281 18.21875 -16.4375 C 20.144531 -14.632812 21.109375 -12.300781 21.109375 -9.4375 C 21.109375 -6.539062 20.179688 -4.15625 18.328125 -2.28125 C 16.484375 -0.414062 14.023438 0.515625 10.953125 0.515625 Z M 11.03125 -17.859375 C 9.457031 -17.859375 8.253906 -17.117188 7.421875 -15.640625 C 6.597656 -14.160156 6.1875 -12.03125 6.1875 -9.25 C 6.1875 -6.550781 6.597656 -4.460938 7.421875 -2.984375 C 8.253906 -1.515625 9.457031 -0.78125 11.03125 -0.78125 C 12.613281 -0.78125 13.8125 -1.519531 14.625 -3 C 15.445312 -4.476562 15.859375 -6.597656 15.859375 -9.359375 C 15.859375 -12.066406 15.445312 -14.160156 14.625 -15.640625 C 13.800781 -17.117188 12.601562 -17.859375 11.03125 -17.859375 Z M 11.03125 -17.859375 "/></g></g><g transform="translate(665.823854, 231.106337)"><g><path d="M 15.140625 0 C 13.191406 -3.03125 11.144531 -5.835938 9 -8.421875 L 8.3125 -8.421875 L 8.3125 -2.75 C 8.3125 -2.226562 8.46875 -1.835938 8.78125 -1.578125 C 9.101562 -1.328125 9.785156 -1.144531 10.828125 -1.03125 L 10.828125 0 L 0.921875 0 L 0.921875 -1.03125 C 2.078125 -1.113281 2.816406 -1.269531 3.140625 -1.5 C 3.460938 -1.726562 3.625 -2.117188 3.625 -2.671875 L 3.625 -15.8125 C 3.625 -16.351562 3.460938 -16.738281 3.140625 -16.96875 C 2.828125 -17.195312 2.085938 -17.410156 0.921875 -17.609375 L 0.921875 -18.625 L 11.34375 -18.625 C 16.113281 -18.625 18.5 -17.15625 18.5 -14.21875 C 18.5 -11.78125 16.984375 -10.113281 13.953125 -9.21875 L 17.6875 -4.4375 C 18.800781 -3.019531 19.546875 -2.148438 19.921875 -1.828125 C 20.304688 -1.515625 20.609375 -1.320312 20.828125 -1.25 C 21.054688 -1.175781 21.546875 -1.101562 22.296875 -1.03125 L 22.296875 0 Z M 8.3125 -17.421875 L 8.3125 -9.625 L 9.3125 -9.625 C 12.007812 -9.625 13.359375 -11.035156 13.359375 -13.859375 C 13.359375 -16.234375 12.015625 -17.421875 9.328125 -17.421875 Z M 8.3125 -17.421875 "/></g></g><g transform="translate(687.253164, 231.106337)"><g><path d="M 10.984375 0 L 10.984375 -1.03125 C 12.734375 -1.1875 13.609375 -1.429688 13.609375 -1.765625 C 13.609375 -1.941406 13.5625 -2.140625 13.46875 -2.359375 L 11.890625 -6.234375 L 5.46875 -6.234375 C 4.582031 -4.117188 4.140625 -2.765625 4.140625 -2.171875 C 4.140625 -1.585938 5.0625 -1.207031 6.90625 -1.03125 L 6.90625 0 L -0.71875 0 L -0.71875 -1.03125 C 0.0507812 -1.082031 0.679688 -1.242188 1.171875 -1.515625 C 1.671875 -1.796875 2.019531 -2.117188 2.21875 -2.484375 C 2.414062 -2.847656 3.242188 -4.796875 4.703125 -8.328125 L 9.0625 -18.90625 L 11.703125 -18.90625 L 17.171875 -5.296875 C 17.910156 -3.460938 18.375 -2.421875 18.5625 -2.171875 C 18.75 -1.921875 19.035156 -1.679688 19.421875 -1.453125 C 19.816406 -1.234375 20.390625 -1.09375 21.140625 -1.03125 L 21.140625 0 Z M 8.625 -14.265625 L 5.96875 -7.53125 L 11.34375 -7.53125 Z M 8.625 -14.265625 "/></g></g><g transform="translate(707.632018, 231.106337)"><g><path d="M 3.03125 -0.921875 L 2.125 0 L 1.03125 0 L 0.828125 -6.71875 L 1.96875 -6.71875 C 3.582031 -2.789062 5.734375 -0.828125 8.421875 -0.828125 C 9.566406 -0.828125 10.46875 -1.109375 11.125 -1.671875 C 11.78125 -2.234375 12.109375 -2.976562 12.109375 -3.90625 C 12.109375 -5.28125 11.003906 -6.320312 8.796875 -7.03125 C 6.566406 -7.707031 5.039062 -8.25 4.21875 -8.65625 C 3.394531 -9.0625 2.703125 -9.691406 2.140625 -10.546875 C 1.585938 -11.398438 1.3125 -12.394531 1.3125 -13.53125 C 1.3125 -15.082031 1.957031 -16.398438 3.25 -17.484375 C 4.550781 -18.578125 6.25 -19.125 8.34375 -19.125 C 10.09375 -19.125 11.765625 -18.703125 13.359375 -17.859375 L 14.171875 -18.625 L 15.296875 -18.625 L 15.421875 -12.296875 L 14.265625 -12.296875 C 13.515625 -14.316406 12.707031 -15.742188 11.84375 -16.578125 C 10.988281 -17.410156 9.972656 -17.828125 8.796875 -17.828125 C 7.859375 -17.828125 7.082031 -17.5625 6.46875 -17.03125 C 5.863281 -16.5 5.5625 -15.832031 5.5625 -15.03125 C 5.5625 -14.414062 5.78125 -13.847656 6.21875 -13.328125 C 6.664062 -12.816406 7.84375 -12.253906 9.75 -11.640625 C 11.613281 -11.035156 12.941406 -10.519531 13.734375 -10.09375 C 14.535156 -9.675781 15.1875 -9.070312 15.6875 -8.28125 C 16.195312 -7.488281 16.453125 -6.539062 16.453125 -5.4375 C 16.453125 -3.71875 15.738281 -2.296875 14.3125 -1.171875 C 12.894531 -0.046875 11.03125 0.515625 8.71875 0.515625 C 6.769531 0.515625 4.875 0.0351562 3.03125 -0.921875 Z M 3.03125 -0.921875 "/></g></g></g><g fill="#008000" fill-opacity="1"><g transform="translate(19.338933, 175.374439)"><g><path d="M 82.703125 -28.984375 C 78.253906 -28.390625 75.613281 -27.554688 74.78125 -26.484375 C 73.945312 -25.410156 73.53125 -24.085938 73.53125 -22.515625 L 73.53125 -14.1875 C 73.53125 -11.613281 73.597656 -9.007812 73.734375 -6.375 C 70.085938 -4.195312 64.976562 -2.265625 58.40625 -0.578125 C 51.832031 1.109375 45.988281 1.953125 40.875 1.953125 C 29.9375 1.953125 20.988281 -1.378906 14.03125 -8.046875 C 7.082031 -14.722656 3.609375 -23.675781 3.609375 -34.90625 C 3.609375 -46.3125 7.203125 -55.515625 14.390625 -62.515625 C 21.578125 -69.523438 31.125 -73.03125 43.03125 -73.03125 C 49.957031 -73.03125 56.53125 -71.488281 62.75 -68.40625 L 65.953125 -71.171875 L 70.265625 -71.171875 L 70.671875 -45.1875 L 66.359375 -45.1875 C 63.847656 -52.875 60.796875 -58.632812 57.203125 -62.46875 C 53.609375 -66.300781 49.117188 -68.21875 43.734375 -68.21875 C 37.378906 -68.21875 32.4375 -65.429688 28.90625 -59.859375 C 25.382812 -54.296875 23.625 -46.53125 23.625 -36.5625 C 23.625 -25.96875 25.351562 -17.734375 28.8125 -11.859375 C 32.269531 -5.992188 37.109375 -3.0625 43.328125 -3.0625 C 48.617188 -3.0625 53 -4.546875 56.46875 -7.515625 L 56.46875 -21.96875 C 56.46875 -23.769531 55.882812 -25.195312 54.71875 -26.25 C 53.550781 -27.3125 50.539062 -28.222656 45.6875 -28.984375 L 45.6875 -32.859375 L 82.703125 -32.859375 Z M 82.703125 -28.984375 "/></g></g></g><g fill="#008000" fill-opacity="1"><g transform="translate(102.514336, 175.74616)"><g><path d="M 52.703125 0 L 2.640625 0 L 2.640625 -2.9375 C 5.765625 -3.1875 7.832031 -3.601562 8.84375 -4.1875 C 9.863281 -4.78125 10.375 -5.929688 10.375 -7.640625 L 10.375 -45.28125 C 10.375 -46.863281 9.859375 -48.003906 8.828125 -48.703125 C 7.804688 -49.410156 5.742188 -49.988281 2.640625 -50.4375 L 2.640625 -53.375 L 49.90625 -53.375 L 49.90625 -39.75 L 47.046875 -39.75 C 46.296875 -41.863281 45.101562 -43.851562 43.46875 -45.71875 C 41.84375 -47.582031 40.382812 -48.757812 39.09375 -49.25 C 37.800781 -49.738281 35.273438 -49.984375 31.515625 -49.984375 L 23.8125 -49.984375 L 23.8125 -29.34375 L 29.265625 -29.34375 C 32.242188 -29.34375 34.4375 -30.039062 35.84375 -31.4375 C 37.25 -32.84375 38.289062 -35.226562 38.96875 -38.59375 L 41.828125 -38.59375 L 41.828125 -16.328125 L 38.96875 -16.328125 C 38.132812 -20.285156 37.039062 -22.878906 35.6875 -24.109375 C 34.332031 -25.335938 32.191406 -25.953125 29.265625 -25.953125 L 23.8125 -25.953125 L 23.8125 -10.5625 C 23.8125 -7.8125 24.210938 -5.925781 25.015625 -4.90625 C 25.816406 -3.894531 28.3125 -3.390625 32.5 -3.390625 C 36.082031 -3.390625 38.675781 -3.546875 40.28125 -3.859375 C 41.882812 -4.171875 43.066406 -4.625 43.828125 -5.21875 C 44.597656 -5.820312 45.84375 -7.53125 47.5625 -10.34375 C 49.28125 -13.15625 50.398438 -15.25 50.921875 -16.625 L 53.671875 -16.625 Z M 52.703125 0 "/></g></g></g><g fill="#008000" fill-opacity="1"><g transform="translate(158.069839, 175.74616)"><g><path d="M 43.375 0 C 37.78125 -8.675781 31.921875 -16.710938 25.796875 -24.109375 L 23.8125 -24.109375 L 23.8125 -7.859375 C 23.8125 -6.378906 24.269531 -5.273438 25.1875 -4.546875 C 26.101562 -3.816406 28.050781 -3.28125 31.03125 -2.9375 L 31.03125 0 L 2.640625 0 L 2.640625 -2.9375 C 5.941406 -3.1875 8.054688 -3.632812 8.984375 -4.28125 C 9.910156 -4.9375 10.375 -6.054688 10.375 -7.640625 L 10.375 -45.28125 C 10.375 -46.84375 9.914062 -47.953125 9 -48.609375 C 8.09375 -49.273438 5.972656 -49.882812 2.640625 -50.4375 L 2.640625 -53.375 L 32.5 -53.375 C 46.164062 -53.375 53 -49.160156 53 -40.734375 C 53 -33.734375 48.660156 -28.957031 39.984375 -26.40625 L 50.671875 -12.71875 C 53.847656 -8.65625 55.984375 -6.171875 57.078125 -5.265625 C 58.171875 -4.359375 59.039062 -3.796875 59.6875 -3.578125 C 60.34375 -3.367188 61.734375 -3.15625 63.859375 -2.9375 L 63.859375 0 Z M 23.8125 -49.90625 L 23.8125 -27.5625 L 26.671875 -27.5625 C 34.421875 -27.5625 38.296875 -31.601562 38.296875 -39.6875 C 38.296875 -46.5 34.445312 -49.90625 26.75 -49.90625 Z M 23.8125 -49.90625 "/></g></g></g><g fill="#008000" fill-opacity="1"><g transform="translate(219.455473, 175.74616)"><g><path d="M 2.375 0 L 2.375 -2.9375 C 6.3125 -3.082031 8.648438 -3.554688 9.390625 -4.359375 C 10.128906 -5.160156 10.5 -6.203125 10.5 -7.484375 L 10.5 -45.28125 C 10.5 -46.539062 10.117188 -47.570312 9.359375 -48.375 C 8.609375 -49.175781 6.28125 -49.863281 2.375 -50.4375 L 2.375 -53.375 L 31.96875 -53.375 L 31.96875 -50.4375 C 31.613281 -50.382812 31.1875 -50.332031 30.6875 -50.28125 C 27.78125 -49.988281 25.921875 -49.546875 25.109375 -48.953125 C 24.296875 -48.359375 23.890625 -47.257812 23.890625 -45.65625 L 23.890625 -7.859375 C 23.890625 -6.503906 24.3125 -5.429688 25.15625 -4.640625 C 26.007812 -3.847656 28.28125 -3.28125 31.96875 -2.9375 L 31.96875 0 Z M 2.375 0 "/></g></g></g><g fill="#008000" fill-opacity="1"><g transform="translate(253.796824, 175.74616)"><g><path d="M 31.4375 0 L 31.4375 -2.9375 C 36.457031 -3.382812 38.96875 -4.097656 38.96875 -5.078125 C 38.96875 -5.578125 38.84375 -6.140625 38.59375 -6.765625 L 34.046875 -17.859375 L 15.640625 -17.859375 C 13.109375 -11.796875 11.84375 -7.925781 11.84375 -6.25 C 11.84375 -4.5625 14.488281 -3.457031 19.78125 -2.9375 L 19.78125 0 L -2.0625 0 L -2.0625 -2.9375 C 0.132812 -3.082031 1.941406 -3.554688 3.359375 -4.359375 C 4.773438 -5.160156 5.769531 -6.082031 6.34375 -7.125 C 6.925781 -8.164062 9.300781 -13.738281 13.46875 -23.84375 L 25.953125 -54.15625 L 33.515625 -54.15625 L 49.203125 -15.203125 C 51.304688 -9.929688 52.625 -6.9375 53.15625 -6.21875 C 53.695312 -5.507812 54.523438 -4.832031 55.640625 -4.1875 C 56.765625 -3.550781 58.40625 -3.132812 60.5625 -2.9375 L 60.5625 0 Z M 24.71875 -40.890625 L 17.109375 -21.546875 L 32.5 -21.546875 Z M 24.71875 -40.890625 "/></g></g></g><g fill="#008000" fill-opacity="1"><g transform="translate(312.173358, 175.74616)"><g><path d="M 49.3125 -38.140625 C 48.226562 -41.078125 46.921875 -43.609375 45.390625 -45.734375 C 43.867188 -47.867188 42.566406 -49.109375 41.484375 -49.453125 C 40.410156 -49.804688 38.191406 -49.984375 34.828125 -49.984375 L 33.0625 -49.984375 L 33.0625 -8.15625 C 33.0625 -6.457031 33.570312 -5.273438 34.59375 -4.609375 C 35.625 -3.941406 37.832031 -3.382812 41.21875 -2.9375 L 41.21875 0 L 11.46875 0 L 11.46875 -2.9375 C 14.851562 -3.1875 17.0625 -3.601562 18.09375 -4.1875 C 19.125 -4.78125 19.640625 -5.976562 19.640625 -7.78125 L 19.640625 -49.984375 L 17.9375 -49.984375 C 14.457031 -49.984375 12.179688 -49.800781 11.109375 -49.4375 C 10.046875 -49.070312 8.75 -47.773438 7.21875 -45.546875 C 5.6875 -43.316406 4.410156 -40.847656 3.390625 -38.140625 L 0.453125 -38.140625 L 0.453125 -53.375 L 52.25 -53.375 L 52.25 -38.140625 Z M 49.3125 -38.140625 "/></g></g></g><g fill="#008000" fill-opacity="1"><g transform="translate(364.870229, 175.74616)"><g><path d="M 43.375 0 C 37.78125 -8.675781 31.921875 -16.710938 25.796875 -24.109375 L 23.8125 -24.109375 L 23.8125 -7.859375 C 23.8125 -6.378906 24.269531 -5.273438 25.1875 -4.546875 C 26.101562 -3.816406 28.050781 -3.28125 31.03125 -2.9375 L 31.03125 0 L 2.640625 0 L 2.640625 -2.9375 C 5.941406 -3.1875 8.054688 -3.632812 8.984375 -4.28125 C 9.910156 -4.9375 10.375 -6.054688 10.375 -7.640625 L 10.375 -45.28125 C 10.375 -46.84375 9.914062 -47.953125 9 -48.609375 C 8.09375 -49.273438 5.972656 -49.882812 2.640625 -50.4375 L 2.640625 -53.375 L 32.5 -53.375 C 46.164062 -53.375 53 -49.160156 53 -40.734375 C 53 -33.734375 48.660156 -28.957031 39.984375 -26.40625 L 50.671875 -12.71875 C 53.847656 -8.65625 55.984375 -6.171875 57.078125 -5.265625 C 58.171875 -4.359375 59.039062 -3.796875 59.6875 -3.578125 C 60.34375 -3.367188 61.734375 -3.15625 63.859375 -2.9375 L 63.859375 0 Z M 23.8125 -49.90625 L 23.8125 -27.5625 L 26.671875 -27.5625 C 34.421875 -27.5625 38.296875 -31.601562 38.296875 -39.6875 C 38.296875 -46.5 34.445312 -49.90625 26.75 -49.90625 Z M 23.8125 -49.90625 "/></g></g></g><g fill="#008000" fill-opacity="1"><g transform="translate(426.255863, 175.74616)"><g><path d="M 2.375 0 L 2.375 -2.9375 C 6.3125 -3.082031 8.648438 -3.554688 9.390625 -4.359375 C 10.128906 -5.160156 10.5 -6.203125 10.5 -7.484375 L 10.5 -45.28125 C 10.5 -46.539062 10.117188 -47.570312 9.359375 -48.375 C 8.609375 -49.175781 6.28125 -49.863281 2.375 -50.4375 L 2.375 -53.375 L 31.96875 -53.375 L 31.96875 -50.4375 C 31.613281 -50.382812 31.1875 -50.332031 30.6875 -50.28125 C 27.78125 -49.988281 25.921875 -49.546875 25.109375 -48.953125 C 24.296875 -48.359375 23.890625 -47.257812 23.890625 -45.65625 L 23.890625 -7.859375 C 23.890625 -6.503906 24.3125 -5.429688 25.15625 -4.640625 C 26.007812 -3.847656 28.28125 -3.28125 31.96875 -2.9375 L 31.96875 0 Z M 2.375 0 "/></g></g></g><g fill="#008000" fill-opacity="1"><g transform="translate(460.597202, 175.74616)"><g><path d="M 54.09375 -13.390625 C 49.269531 -3.484375 41.429688 1.46875 30.578125 1.46875 C 22.484375 1.46875 15.8125 -1.066406 10.5625 -6.140625 C 5.320312 -11.222656 2.703125 -17.898438 2.703125 -26.171875 C 2.703125 -34.597656 5.4375 -41.46875 10.90625 -46.78125 C 16.375 -52.101562 23.296875 -54.765625 31.671875 -54.765625 C 36.859375 -54.765625 41.609375 -53.609375 45.921875 -51.296875 L 48.21875 -53.375 L 51.453125 -53.375 L 51.828125 -33.890625 L 48.515625 -33.890625 C 46.660156 -39.804688 44.414062 -44.160156 41.78125 -46.953125 C 39.15625 -49.753906 35.9375 -51.15625 32.125 -51.15625 C 27.476562 -51.15625 23.898438 -49.140625 21.390625 -45.109375 C 18.890625 -41.085938 17.640625 -35.191406 17.640625 -27.421875 C 17.640625 -19.691406 19.0625 -13.828125 21.90625 -9.828125 C 24.75 -5.835938 28.769531 -3.84375 33.96875 -3.84375 C 40.65625 -3.84375 46.285156 -7.675781 50.859375 -15.34375 Z M 54.09375 -13.390625 "/></g></g></g><g fill="#008000" fill-opacity="1"><g transform="translate(536.233214, 175.374439)"><g><path d="M 72.125 -17.859375 C 65.707031 -4.648438 55.257812 1.953125 40.78125 1.953125 C 29.976562 1.953125 21.082031 -1.429688 14.09375 -8.203125 C 7.101562 -14.972656 3.609375 -23.875 3.609375 -34.90625 C 3.609375 -46.144531 7.253906 -55.304688 14.546875 -62.390625 C 21.835938 -69.484375 31.066406 -73.03125 42.234375 -73.03125 C 49.148438 -73.03125 55.484375 -71.488281 61.234375 -68.40625 L 64.296875 -71.171875 L 68.609375 -71.171875 L 69.109375 -45.1875 L 64.703125 -45.1875 C 62.222656 -53.082031 59.226562 -58.894531 55.71875 -62.625 C 52.207031 -66.351562 47.910156 -68.21875 42.828125 -68.21875 C 36.640625 -68.21875 31.875 -65.53125 28.53125 -60.15625 C 25.1875 -54.789062 23.515625 -46.925781 23.515625 -36.5625 C 23.515625 -26.257812 25.410156 -18.441406 29.203125 -13.109375 C 33.003906 -7.773438 38.367188 -5.109375 45.296875 -5.109375 C 54.222656 -5.109375 61.726562 -10.226562 67.8125 -20.46875 Z M 72.125 -17.859375 "/></g></g></g><g fill="#008000" fill-opacity="1"><g transform="translate(613.662256, 175.74616)"><g><path d="M 31.4375 0 L 31.4375 -2.9375 C 36.457031 -3.382812 38.96875 -4.097656 38.96875 -5.078125 C 38.96875 -5.578125 38.84375 -6.140625 38.59375 -6.765625 L 34.046875 -17.859375 L 15.640625 -17.859375 C 13.109375 -11.796875 11.84375 -7.925781 11.84375 -6.25 C 11.84375 -4.5625 14.488281 -3.457031 19.78125 -2.9375 L 19.78125 0 L -2.0625 0 L -2.0625 -2.9375 C 0.132812 -3.082031 1.941406 -3.554688 3.359375 -4.359375 C 4.773438 -5.160156 5.769531 -6.082031 6.34375 -7.125 C 6.925781 -8.164062 9.300781 -13.738281 13.46875 -23.84375 L 25.953125 -54.15625 L 33.515625 -54.15625 L 49.203125 -15.203125 C 51.304688 -9.929688 52.625 -6.9375 53.15625 -6.21875 C 53.695312 -5.507812 54.523438 -4.832031 55.640625 -4.1875 C 56.765625 -3.550781 58.40625 -3.132812 60.5625 -2.9375 L 60.5625 0 Z M 24.71875 -40.890625 L 17.109375 -21.546875 L 32.5 -21.546875 Z M 24.71875 -40.890625 "/></g></g></g><g fill="#008000" fill-opacity="1"><g transform="translate(672.03879, 175.74616)"><g><path d="M 43.375 0 C 37.78125 -8.675781 31.921875 -16.710938 25.796875 -24.109375 L 23.8125 -24.109375 L 23.8125 -7.859375 C 23.8125 -6.378906 24.269531 -5.273438 25.1875 -4.546875 C 26.101562 -3.816406 28.050781 -3.28125 31.03125 -2.9375 L 31.03125 0 L 2.640625 0 L 2.640625 -2.9375 C 5.941406 -3.1875 8.054688 -3.632812 8.984375 -4.28125 C 9.910156 -4.9375 10.375 -6.054688 10.375 -7.640625 L 10.375 -45.28125 C 10.375 -46.84375 9.914062 -47.953125 9 -48.609375 C 8.09375 -49.273438 5.972656 -49.882812 2.640625 -50.4375 L 2.640625 -53.375 L 32.5 -53.375 C 46.164062 -53.375 53 -49.160156 53 -40.734375 C 53 -33.734375 48.660156 -28.957031 39.984375 -26.40625 L 50.671875 -12.71875 C 53.847656 -8.65625 55.984375 -6.171875 57.078125 -5.265625 C 58.171875 -4.359375 59.039062 -3.796875 59.6875 -3.578125 C 60.34375 -3.367188 61.734375 -3.15625 63.859375 -2.9375 L 63.859375 0 Z M 23.8125 -49.90625 L 23.8125 -27.5625 L 26.671875 -27.5625 C 34.421875 -27.5625 38.296875 -31.601562 38.296875 -39.6875 C 38.296875 -46.5 34.445312 -49.90625 26.75 -49.90625 Z M 23.8125 -49.90625 "/></g></g></g><g fill="#008000" fill-opacity="1"><g transform="translate(733.424425, 175.74616)"><g><path d="M 52.703125 0 L 2.640625 0 L 2.640625 -2.9375 C 5.765625 -3.1875 7.832031 -3.601562 8.84375 -4.1875 C 9.863281 -4.78125 10.375 -5.929688 10.375 -7.640625 L 10.375 -45.28125 C 10.375 -46.863281 9.859375 -48.003906 8.828125 -48.703125 C 7.804688 -49.410156 5.742188 -49.988281 2.640625 -50.4375 L 2.640625 -53.375 L 49.90625 -53.375 L 49.90625 -39.75 L 47.046875 -39.75 C 46.296875 -41.863281 45.101562 -43.851562 43.46875 -45.71875 C 41.84375 -47.582031 40.382812 -48.757812 39.09375 -49.25 C 37.800781 -49.738281 35.273438 -49.984375 31.515625 -49.984375 L 23.8125 -49.984375 L 23.8125 -29.34375 L 29.265625 -29.34375 C 32.242188 -29.34375 34.4375 -30.039062 35.84375 -31.4375 C 37.25 -32.84375 38.289062 -35.226562 38.96875 -38.59375 L 41.828125 -38.59375 L 41.828125 -16.328125 L 38.96875 -16.328125 C 38.132812 -20.285156 37.039062 -22.878906 35.6875 -24.109375 C 34.332031 -25.335938 32.191406 -25.953125 29.265625 -25.953125 L 23.8125 -25.953125 L 23.8125 -10.5625 C 23.8125 -7.8125 24.210938 -5.925781 25.015625 -4.90625 C 25.816406 -3.894531 28.3125 -3.390625 32.5 -3.390625 C 36.082031 -3.390625 38.675781 -3.546875 40.28125 -3.859375 C 41.882812 -4.171875 43.066406 -4.625 43.828125 -5.21875 C 44.597656 -5.820312 45.84375 -7.53125 47.5625 -10.34375 C 49.28125 -13.15625 50.398438 -15.25 50.921875 -16.625 L 53.671875 -16.625 Z M 52.703125 0 "/></g></g></g></svg>